<mxfile host="app.diagrams.net" agent="Mozilla/5.0 (Windows NT 10.0; Win64; x64) AppleWebKit/537.36 (KHTML, like Gecko) Chrome/126.0.0.0 Safari/537.36 OPR/112.0.0.0" version="24.7.13">
  <diagram name="Страница — 1" id="81DjTX1Zt05AeOksZ2re">
    <mxGraphModel dx="841" dy="484" grid="0" gridSize="10" guides="1" tooltips="1" connect="1" arrows="1" fold="1" page="0" pageScale="1" pageWidth="1169" pageHeight="1654" math="0" shadow="0">
      <root>
        <mxCell id="0" />
        <mxCell id="1" parent="0" />
        <mxCell id="LOxP8aFsU5h4RWgLrdqV-2" value="Управление обучающей платформой" style="html=1;whiteSpace=wrap;" parent="1" vertex="1">
          <mxGeometry x="340" y="160" width="180" height="90" as="geometry" />
        </mxCell>
        <mxCell id="LOxP8aFsU5h4RWgLrdqV-4" value="" style="endArrow=none;html=1;rounded=0;" parent="1" edge="1">
          <mxGeometry width="50" height="50" relative="1" as="geometry">
            <mxPoint x="340" y="170" as="sourcePoint" />
            <mxPoint x="350" y="160" as="targetPoint" />
          </mxGeometry>
        </mxCell>
        <mxCell id="LOxP8aFsU5h4RWgLrdqV-7" value="&lt;font style=&quot;font-size: 11px;&quot;&gt;А0&lt;/font&gt;" style="text;html=1;align=center;verticalAlign=middle;whiteSpace=wrap;rounded=0;" parent="1" vertex="1">
          <mxGeometry x="486" y="230" width="40" height="20" as="geometry" />
        </mxCell>
        <mxCell id="LOxP8aFsU5h4RWgLrdqV-9" value="" style="endArrow=classic;html=1;rounded=0;entryX=0.25;entryY=0;entryDx=0;entryDy=0;" parent="1" edge="1">
          <mxGeometry width="50" height="50" relative="1" as="geometry">
            <mxPoint x="434.6" y="50" as="sourcePoint" />
            <mxPoint x="434.6" y="160" as="targetPoint" />
          </mxGeometry>
        </mxCell>
        <mxCell id="LOxP8aFsU5h4RWgLrdqV-10" value="" style="endArrow=classic;html=1;rounded=0;entryX=0.25;entryY=0;entryDx=0;entryDy=0;" parent="1" edge="1">
          <mxGeometry width="50" height="50" relative="1" as="geometry">
            <mxPoint x="411" y="360" as="sourcePoint" />
            <mxPoint x="411" y="250" as="targetPoint" />
          </mxGeometry>
        </mxCell>
        <mxCell id="LOxP8aFsU5h4RWgLrdqV-11" value="" style="endArrow=classic;html=1;rounded=0;entryX=0.25;entryY=0;entryDx=0;entryDy=0;" parent="1" edge="1">
          <mxGeometry width="50" height="50" relative="1" as="geometry">
            <mxPoint x="459" y="360" as="sourcePoint" />
            <mxPoint x="459" y="250" as="targetPoint" />
          </mxGeometry>
        </mxCell>
        <mxCell id="LOxP8aFsU5h4RWgLrdqV-12" value="" style="endArrow=classic;html=1;rounded=0;" parent="1" edge="1">
          <mxGeometry width="50" height="50" relative="1" as="geometry">
            <mxPoint x="220" y="193" as="sourcePoint" />
            <mxPoint x="340" y="193" as="targetPoint" />
          </mxGeometry>
        </mxCell>
        <mxCell id="LOxP8aFsU5h4RWgLrdqV-13" value="" style="endArrow=classic;html=1;rounded=0;" parent="1" edge="1">
          <mxGeometry width="50" height="50" relative="1" as="geometry">
            <mxPoint x="520" y="204.67000000000002" as="sourcePoint" />
            <mxPoint x="640" y="204.67000000000002" as="targetPoint" />
          </mxGeometry>
        </mxCell>
        <mxCell id="LOxP8aFsU5h4RWgLrdqV-14" value="&lt;span style=&quot;font-size: 11px;&quot;&gt;Данные пользователей&lt;/span&gt;" style="text;html=1;align=center;verticalAlign=middle;whiteSpace=wrap;rounded=0;" parent="1" vertex="1">
          <mxGeometry x="220" y="160" width="110" height="30" as="geometry" />
        </mxCell>
        <mxCell id="LOxP8aFsU5h4RWgLrdqV-16" value="Правила платформы" style="text;html=1;align=center;verticalAlign=middle;whiteSpace=wrap;rounded=0;" parent="1" vertex="1">
          <mxGeometry x="440" y="85" width="80" height="30" as="geometry" />
        </mxCell>
        <mxCell id="LOxP8aFsU5h4RWgLrdqV-18" value="Клиент" style="text;html=1;align=center;verticalAlign=middle;whiteSpace=wrap;rounded=0;" parent="1" vertex="1">
          <mxGeometry x="457" y="279" width="60" height="40" as="geometry" />
        </mxCell>
        <mxCell id="LOxP8aFsU5h4RWgLrdqV-19" value="Веб-приложение" style="text;html=1;align=center;verticalAlign=middle;whiteSpace=wrap;rounded=0;" parent="1" vertex="1">
          <mxGeometry x="307" y="279" width="100" height="40" as="geometry" />
        </mxCell>
        <mxCell id="LOxP8aFsU5h4RWgLrdqV-20" value="Отчеты о прогрессе&amp;nbsp;" style="text;html=1;align=center;verticalAlign=middle;whiteSpace=wrap;rounded=0;" parent="1" vertex="1">
          <mxGeometry x="520" y="169" width="134" height="40" as="geometry" />
        </mxCell>
        <mxCell id="42EC3KurILKUJEXAfszZ-4" value="" style="endArrow=classic;html=1;rounded=0;" edge="1" parent="1">
          <mxGeometry width="50" height="50" relative="1" as="geometry">
            <mxPoint x="220" y="216.6" as="sourcePoint" />
            <mxPoint x="340" y="216.6" as="targetPoint" />
          </mxGeometry>
        </mxCell>
        <mxCell id="42EC3KurILKUJEXAfszZ-5" value="&lt;span style=&quot;font-size: 11px;&quot;&gt;Учебные материалы&lt;/span&gt;" style="text;html=1;align=center;verticalAlign=middle;whiteSpace=wrap;rounded=0;" vertex="1" parent="1">
          <mxGeometry x="220" y="217" width="110" height="30" as="geometry" />
        </mxCell>
      </root>
    </mxGraphModel>
  </diagram>
</mxfile>
